<?xml version="1.0" encoding="UTF-8" standalone="no"?>
<!-- Created with Inkscape (http://www.inkscape.org/) -->

<svg
   xmlns:dc="http://purl.org/dc/elements/1.1/"
   xmlns:cc="http://creativecommons.org/ns#"
   xmlns:rdf="http://www.w3.org/1999/02/22-rdf-syntax-ns#"
   xmlns:svg="http://www.w3.org/2000/svg"
   xmlns="http://www.w3.org/2000/svg"
   xmlns:sodipodi="http://sodipodi.sourceforge.net/DTD/sodipodi-0.dtd"
   xmlns:inkscape="http://www.inkscape.org/namespaces/inkscape"
   width="250"
   height="250"
   id="svg2"
   version="1.1"
   inkscape:version="0.48.1 r9760"
   sodipodi:docname="fatCase.svg">
  <defs
     id="defs4" />
  <sodipodi:namedview
     id="base"
     pagecolor="#ffffff"
     bordercolor="#666666"
     borderopacity="1.0"
     inkscape:pageopacity="0.0"
     inkscape:pageshadow="2"
     inkscape:zoom="2.096"
     inkscape:cx="125"
     inkscape:cy="125"
     inkscape:document-units="px"
     inkscape:current-layer="layer1"
     showgrid="true"
     inkscape:window-width="1109"
     inkscape:window-height="742"
     inkscape:window-x="150"
     inkscape:window-y="6"
     inkscape:window-maximized="0">
    <inkscape:grid
       type="xygrid"
       id="grid2987"
       empspacing="5"
       visible="true"
       enabled="true"
       snapvisiblegridlinesonly="true" />
  </sodipodi:namedview>
  <metadata
     id="metadata7">
    <rdf:RDF>
      <cc:Work
         rdf:about="">
        <dc:format>image/svg+xml</dc:format>
        <dc:type
           rdf:resource="http://purl.org/dc/dcmitype/StillImage" />
        <dc:title />
      </cc:Work>
    </rdf:RDF>
  </metadata>
  <g
     inkscape:label="Layer 1"
     inkscape:groupmode="layer"
     id="layer1"
     transform="translate(0,-802.36218)">
    <path
       transform="matrix(2.399978,0,0,2.399978,-499.2187,739.1709)"
       d="m 309.61147,78.425362 c 0,27.331888 -22.15687,49.488758 -49.48876,49.488758 -27.33188,0 -49.48875,-22.15687 -49.48875,-49.488758 0,-27.331885 22.15687,-49.488755 49.48875,-49.488755 27.33189,0 49.48876,22.15687 49.48876,49.488755 z"
       sodipodi:ry="49.488754"
       sodipodi:rx="49.488754"
       sodipodi:cy="78.425362"
       sodipodi:cx="260.12271"
       id="path3824"
       style="fill:#000000;fill-opacity:0.40784314;stroke:#000000;stroke-width:0.96499997;stroke-miterlimit:4;stroke-opacity:1;stroke-dasharray:none;stroke-dashoffset:0"
       sodipodi:type="arc" />
    <path
       sodipodi:nodetypes="ccccccccccccccccccc"
       inkscape:connector-curvature="0"
       d="M 41.880632,841.70245 51.9417,851.76364 m 74.2521,-31.67683 0,-11.48246 M 6.1999909,924.06658 22.257644,923.98498 M 126,1034.3622 l -0.33275,11.5733 m 45.54316,-9.3342 L 168,1029.3622 c -13.14725,5.5526 -26.83114,9 -42,9 l 0.195,-24.1322 c -48.78975,0 -88.341651,-41.55211 -88.341651,-90.34174 l -15.538418,0.0792 c 0,-57.50444 46.375663,-102.20129 103.880069,-102.20129 l 0,15.77938 c 48.78973,0 84.34166,39.46027 84.34166,88.24991 l 33.20219,-0.41154 c -1.47978,50.60306 -30.89355,95.09558 -72.52844,111.21738 z"
       style="fill:#ffffff;fill-opacity:1;stroke:#0000ff;stroke-width:2.39997792px;stroke-linecap:butt;stroke-linejoin:miter;stroke-opacity:1"
       id="path3826" />
  </g>
</svg>
