<?xml version="1.0" encoding="UTF-8" standalone="no"?>
<!-- Created with Inkscape (http://www.inkscape.org/) -->

<svg
   xmlns:dc="http://purl.org/dc/elements/1.1/"
   xmlns:cc="http://creativecommons.org/ns#"
   xmlns:rdf="http://www.w3.org/1999/02/22-rdf-syntax-ns#"
   xmlns:svg="http://www.w3.org/2000/svg"
   xmlns="http://www.w3.org/2000/svg"
   xmlns:sodipodi="http://sodipodi.sourceforge.net/DTD/sodipodi-0.dtd"
   xmlns:inkscape="http://www.inkscape.org/namespaces/inkscape"
   width="300"
   height="120"
   id="svg2"
   version="1.1"
   inkscape:version="0.48.1 r9760"
   sodipodi:docname="removeOneSquare_01.svg">
  <defs
     id="defs4" />
  <sodipodi:namedview
     id="base"
     pagecolor="#ffffff"
     bordercolor="#666666"
     borderopacity="1.0"
     inkscape:pageopacity="0.0"
     inkscape:pageshadow="2"
     inkscape:zoom="3.26"
     inkscape:cx="150"
     inkscape:cy="60"
     inkscape:document-units="px"
     inkscape:current-layer="layer1"
     showgrid="true"
     inkscape:window-width="1109"
     inkscape:window-height="742"
     inkscape:window-x="129"
     inkscape:window-y="19"
     inkscape:window-maximized="0"
     objecttolerance="1"
     gridtolerance="1" />
  <metadata
     id="metadata7">
    <rdf:RDF>
      <cc:Work
         rdf:about="">
        <dc:format>image/svg+xml</dc:format>
        <dc:type
           rdf:resource="http://purl.org/dc/dcmitype/StillImage" />
        <dc:title />
      </cc:Work>
    </rdf:RDF>
  </metadata>
  <g
     inkscape:label="Layer 1"
     inkscape:groupmode="layer"
     id="layer1"
     transform="translate(0,-932.36218)">
    <g
       id="g3066"
       transform="translate(64,-8)">
      <path
         sodipodi:type="arc"
         style="fill:#000000;fill-opacity:0.40784314;stroke:#000000;stroke-width:0.96499997;stroke-miterlimit:4;stroke-opacity:1;stroke-dasharray:none;stroke-dashoffset:0"
         id="path3824"
         sodipodi:cx="260.12271"
         sodipodi:cy="78.425362"
         sodipodi:rx="49.488754"
         sodipodi:ry="49.488754"
         d="m 309.61147,78.425362 c 0,27.331888 -22.15687,49.488758 -49.48876,49.488758 -27.33188,0 -49.48875,-22.15687 -49.48875,-49.488758 0,-27.331885 22.15687,-49.488755 49.48875,-49.488755 27.33189,0 49.48876,22.15687 49.48876,49.488755 z"
         transform="translate(-87.93456,923.63007)" />
      <path
         id="path3826"
         style="fill:#ffffff;fill-opacity:1;stroke:#0000ff;stroke-width:1px;stroke-linecap:butt;stroke-linejoin:miter;stroke-opacity:1"
         d="m 137.52556,966.35192 4.19215,4.1922 m 30.93866,-13.1988 0,-4.78438 m -49.99788,48.10966 6.69075,-0.034 m 43.16973,46.2231 -0.082,4.5901 m 18.97649,-3.8893 -1.03596,-2.5556 c -5.47807,2.3136 -11.51304,3.8885 -17.83346,3.8885 l 0.11283,-11.4877 c -20.32925,0 -36.80936,-16.4802 -36.80936,-36.8094 l -6.4744,0.033 c 0,-23.96038 19.32337,-43.41758 43.28376,-43.41758 l 0,8.21248 c 20.32924,0 34.44607,15.51059 34.44607,35.8397 l 14.53098,-0.045 c -0.61658,21.0848 -12.87243,39.6235 -30.22046,46.341 z"
         inkscape:connector-curvature="0"
         sodipodi:nodetypes="cccccccccccccccccccc" />
    </g>
  </g>
</svg>
